<svg id="Слой_1" data-name="Слой 1" xmlns="http://www.w3.org/2000/svg" width="263.38" height="124.65" viewBox="0 0 263.38 124.65"><defs><style>.cls-1{font-size:12.53px;font-family:DINPro, DIN Pro;}.cls-1,.cls-3{fill:#747576;}.cls-2{fill:#ec6625;}</style></defs><title>AdBus logo2</title><text class="cls-1" transform="translate(74.56 105.54)">УМНАЯ СИСТЕМА РАЗМЕЩЕНИЯ <tspan x="0" y="15.04">РЕКЛАМЫ НА ТРАНСПОРТЕ</tspan></text><path class="cls-2" d="M160.28,67.72a4.62,4.62,0,0,1-2.91.8,4.71,4.71,0,0,1-2.75-.71A4.59,4.59,0,0,1,153,65.45l-9.25.87a8.52,8.52,0,0,0,3.63,5.41c1.89,1.27,5.05,1.9,9.5,1.9a19.14,19.14,0,0,0,7.45-1.18,8.54,8.54,0,0,0,4-3.17,7.47,7.47,0,0,0,1.27-4.09,6.58,6.58,0,0,0-1.2-3.82A7.59,7.59,0,0,0,165,58.69,27.47,27.47,0,0,0,158,57.22a14.48,14.48,0,0,1-4-.82,1.43,1.43,0,0,1-.92-1.35,1.67,1.67,0,0,1,.72-1.36,3.79,3.79,0,0,1,2.3-.56,4.75,4.75,0,0,1,2.66.73A3.07,3.07,0,0,1,160,55.58l8.84-.87a10.8,10.8,0,0,0-2.3-3.78A8.42,8.42,0,0,0,163,48.87a23,23,0,0,0-6.43-.66,20.49,20.49,0,0,0-6.57.85,8.34,8.34,0,0,0-3.85,2.6,6.42,6.42,0,0,0-1.4,4.14,6.31,6.31,0,0,0,1.3,3.92,7.1,7.1,0,0,0,3.18,2.43A41.35,41.35,0,0,0,156,63.72a19,19,0,0,1,4,1,1.71,1.71,0,0,1,1.06,1.56A1.78,1.78,0,0,1,160.28,67.72Z" transform="translate(0 -0.22)"/><path class="cls-2" d="M117.78,48.75V64.24q0,4.79,2.19,7.09a7.94,7.94,0,0,0,6,2.3,10.41,10.41,0,0,0,4.87-1,12.89,12.89,0,0,0,3.93-3.46v3.94h8.7V48.75h-9.32V60.46c0,2.22-.35,3.75-1.06,4.6a3.4,3.4,0,0,1-2.74,1.29,3,3,0,0,1-2.38-1,4.87,4.87,0,0,1-.85-3.25V48.75Z" transform="translate(0 -0.22)"/><path class="cls-2" d="M104.63,73.08a44.47,44.47,0,0,0,4.65-.46,10.89,10.89,0,0,0,3.94-1.1,8.88,8.88,0,0,0,3.32-3.29,9.17,9.17,0,0,0,1.21-4.7,8.28,8.28,0,0,0-1.7-5.33,9.5,9.5,0,0,0-5.33-3A8.25,8.25,0,0,0,114.34,53a7.49,7.49,0,0,0,1.85-5.11,7.74,7.74,0,0,0-2.6-6q-2.59-2.41-7.45-2.41H86.71V73.08ZM97.18,46.3h4.58a5.08,5.08,0,0,1,3.31.83,2.85,2.85,0,0,1,1,2.29,3,3,0,0,1-1,2.42,5.23,5.23,0,0,1-3.38.83H97.18Zm0,12.76h5.27a6,6,0,0,1,3.81.91,2.94,2.94,0,0,1,1.09,2.39,3.2,3.2,0,0,1-1.1,2.56,5.83,5.83,0,0,1-3.78,1H97.18Z" transform="translate(0 -0.22)"/><path class="cls-3" d="M74.64,72.58A12,12,0,0,0,78,69.49v3.59h8.72V39.5H77.3V51.14a9,9,0,0,0-3.15-2.2,10.22,10.22,0,0,0-4-.73,9.48,9.48,0,0,0-7.37,3.2q-2.89,3.21-2.9,9.26a15.7,15.7,0,0,0,2.63,9.18,8.67,8.67,0,0,0,7.59,3.78A9.56,9.56,0,0,0,74.64,72.58ZM70.36,56.52a3.37,3.37,0,0,1,2.72-1.35,3.87,3.87,0,0,1,3.07,1.41,6.4,6.4,0,0,1,1.22,4.27,7,7,0,0,1-1.19,4.56,3.77,3.77,0,0,1-3,1.4,3.51,3.51,0,0,1-2.81-1.39,6.88,6.88,0,0,1-1.13-4.36C69.26,58.93,69.62,57.42,70.36,56.52Z" transform="translate(0 -0.22)"/><path class="cls-3" d="M39.37,39.5,26.75,73.08H37.34L39,67.54H50.76l1.68,5.54H63.31L50.69,39.5Zm1.87,20.78L44.9,48.21l3.71,12.07Z" transform="translate(0 -0.22)"/><polygon class="cls-2" points="62 124.65 62.35 94.5 39.48 114.15 52.8 114.98 62 124.65"/><path class="cls-3" d="M186.75,13A13.89,13.89,0,0,0,173.42.24c-53.92-.34-108.08,4-162,11.81A13.51,13.51,0,0,0,.05,26.31q3.27,37.2,6.55,74.83a12.6,12.6,0,0,0,13.57,11.45c3.67-.32,7.33-.66,11-1l3.41-2.93L48.91,96.36q-13,.65-26,1.26a5.29,5.29,0,0,1-5.44-4.79q-2.85-33.06-5.69-65.6a5.69,5.69,0,0,1,4.55-5.9c53.12-10,106.73-16,159.93-15.27a6.24,6.24,0,0,1,5.76,5.2q4.08,26.78,8.16,53.05Q188.48,38.75,186.75,13Z" transform="translate(0 -0.22)"/></svg>