<svg id="Слой_1" data-name="Слой 1" xmlns="http://www.w3.org/2000/svg" width="263.29" height="124.06" viewBox="0 0 263.29 124.06"><defs><style>.cls-1{isolation:isolate;}.cls-2{fill:#747576;}.cls-3{fill:#ec6625;}</style></defs><title>AdBus logo2</title><g class="cls-1"><g class="cls-1"><path class="cls-2" d="M80.89,97.3l-3.22,7.5a1.9,1.9,0,0,1-1.74,1.38h-.78v-.85h.56a1.09,1.09,0,0,0,.71-.2,1.69,1.69,0,0,0,.47-.68l.36-.84L74.32,97.3h1l2.39,5.25,2.16-5.25Z" transform="translate(0 -1.14)"/><path class="cls-2" d="M89.83,106.18h-1V99.44l-2.43,5.35h-.81l-2.47-5.35v6.74h-1V97.3h1l2.89,6.3,2.82-6.3h1Z" transform="translate(0 -1.14)"/><path class="cls-2" d="M98.51,106.18h-1v-4.05H93.35v4.05H92.4V97.3h.95v4h4.21v-4h1Z" transform="translate(0 -1.14)"/><path class="cls-2" d="M107.27,106.18h-1l-.72-2h-3.87l-.71,2h-1l3.26-8.88h.8Zm-2-2.83-1.65-4.69L102,103.35Z" transform="translate(0 -1.14)"/><path class="cls-2" d="M111.16,102.53l-1.94,3.65h-1.11l2-3.79a2.41,2.41,0,0,1-1.4-.87,2.56,2.56,0,0,1-.51-1.61A2.48,2.48,0,0,1,109,98a2.78,2.78,0,0,1,2-.71h3.31v8.88h-1v-3.65Zm2.19-.85V98.14h-2.27a1.9,1.9,0,0,0-1.38.47,1.94,1.94,0,0,0,0,2.6,1.94,1.94,0,0,0,1.38.47Z" transform="translate(0 -1.14)"/><path class="cls-2" d="M125.82,103.61a3.2,3.2,0,0,1-1.06,1.94,3.23,3.23,0,0,1-4.24-.17,2.53,2.53,0,0,1-.73-1.28,18.56,18.56,0,0,1,0-4.71,2.56,2.56,0,0,1,.73-1.29,3.28,3.28,0,0,1,4.25-.17,3.22,3.22,0,0,1,1,1.94h-1a2.33,2.33,0,0,0-.73-1.31,2,2,0,0,0-1.38-.48,2.06,2.06,0,0,0-1.53.62,1.85,1.85,0,0,0-.51,1,11.86,11.86,0,0,0-.12,2,11.7,11.7,0,0,0,.12,2,1.88,1.88,0,0,0,.51,1,2.22,2.22,0,0,0,2.92.14,2.29,2.29,0,0,0,.75-1.32Z" transform="translate(0 -1.14)"/><path class="cls-2" d="M134.28,106.18h-.95V98.94l-4.51,7.24h-.9V97.3h1v7.24l4.51-7.24h.9Z" transform="translate(0 -1.14)"/><path class="cls-2" d="M142.7,103.61a3.31,3.31,0,0,1-1.06,1.94,3,3,0,0,1-2,.71,3,3,0,0,1-2.22-.88,2.48,2.48,0,0,1-.74-1.28,18.56,18.56,0,0,1,0-4.71,2.51,2.51,0,0,1,.74-1.29,3,3,0,0,1,2.22-.87,3,3,0,0,1,2,.7,3.23,3.23,0,0,1,1.06,1.94h-1a2.27,2.27,0,0,0-.73-1.31,2,2,0,0,0-1.37-.48,2.08,2.08,0,0,0-1.54.62,2,2,0,0,0-.51,1,13.35,13.35,0,0,0-.11,2,13.16,13.16,0,0,0,.11,2,2,2,0,0,0,.51,1,2.12,2.12,0,0,0,1.54.62,2.1,2.1,0,0,0,1.39-.48,2.33,2.33,0,0,0,.74-1.32Z" transform="translate(0 -1.14)"/><path class="cls-2" d="M149.72,98.15h-2.57v8h-1v-8h-2.57V97.3h6.09Z" transform="translate(0 -1.14)"/><path class="cls-2" d="M156.89,106.18h-5.51V97.3h5.51v.85h-4.57v3.13h3.89v.85h-3.89v3.2h4.57Z" transform="translate(0 -1.14)"/><path class="cls-2" d="M166.47,106.18h-.95V99.44l-2.43,5.35h-.81l-2.47-5.35v6.74h-.95V97.3h.95l2.89,6.3,2.82-6.3h.95Z" transform="translate(0 -1.14)"/><path class="cls-2" d="M175.22,106.18h-1l-.71-2h-3.88l-.71,2h-1l3.27-8.88h.8Zm-2-2.83-1.65-4.69-1.67,4.69Z" transform="translate(0 -1.14)"/><path class="cls-2" d="M185.81,99.91a2.49,2.49,0,0,1-.77,1.9,2.76,2.76,0,0,1-2,.72h-2.36v3.65h-1V97.3h3.31a2.77,2.77,0,0,1,2,.72A2.51,2.51,0,0,1,185.81,99.91Zm-1.45,1.32a1.73,1.73,0,0,0,.5-1.32,1.69,1.69,0,0,0-.5-1.31,2,2,0,0,0-1.37-.45h-2.28v3.53H183A2,2,0,0,0,184.36,101.23Z" transform="translate(0 -1.14)"/><path class="cls-2" d="M193.18,106.18h-1l-.71-2h-3.88l-.71,2h-1l3.27-8.88h.79Zm-2-2.83-1.64-4.69-1.67,4.69Z" transform="translate(0 -1.14)"/><path class="cls-2" d="M197,106.26a2.91,2.91,0,0,1-2-.71,3.12,3.12,0,0,1-1-1.94H195a2.35,2.35,0,0,0,.75,1.33,2.31,2.31,0,0,0,2.79,0,1.53,1.53,0,0,0,.55-1.25c0-1.1-.6-1.66-1.8-1.66h-1.13v-.82h1.16a1.66,1.66,0,0,0,1.21-.42,1.59,1.59,0,0,0,.43-1.19,1.46,1.46,0,0,0-.49-1.16,2,2,0,0,0-1.32-.41,2,2,0,0,0-1.38.49,2.43,2.43,0,0,0-.74,1.33h-1a3.11,3.11,0,0,1,1-1.94,3,3,0,0,1,2-.7,3,3,0,0,1,2,.64,2.12,2.12,0,0,1,.76,1.71,2.06,2.06,0,0,1-1.28,2,2.06,2.06,0,0,1,1.42,2.13,2.28,2.28,0,0,1-.83,1.83A3.24,3.24,0,0,1,197,106.26Z" transform="translate(0 -1.14)"/><path class="cls-2" d="M209.84,106.18h-1V99.44l-2.43,5.35h-.81l-2.47-5.35v6.74h-1V97.3h1l2.9,6.3,2.81-6.3h1Z" transform="translate(0 -1.14)"/><path class="cls-2" d="M217.92,106.18h-5.51V97.3h5.51v.85h-4.56v3.13h3.89v.85h-3.89v3.2h4.56Z" transform="translate(0 -1.14)"/><path class="cls-2" d="M230.81,108.33h-.94v-2.15h-10V97.3h1v8h3.5v-8h1v8h3.5v-8h.95v8h1.05Z" transform="translate(0 -1.14)"/><path class="cls-2" d="M238.11,106.18H232.6V97.3h5.51v.85h-4.56v3.13h3.89v.85h-3.89v3.2h4.56Z" transform="translate(0 -1.14)"/><path class="cls-2" d="M246.19,106.18h-.94v-4.05H241v4.05h-.95V97.3H241v4h4.22v-4h.94Z" transform="translate(0 -1.14)"/><path class="cls-2" d="M255.12,106.18h-.94V98.94l-4.52,7.24h-.9V97.3h1v7.24l4.52-7.24h.89Z" transform="translate(0 -1.14)"/><path class="cls-2" d="M260.15,102.53l-1.93,3.65h-1.11l2-3.79a2.44,2.44,0,0,1-1.4-.87,2.56,2.56,0,0,1-.51-1.61A2.51,2.51,0,0,1,258,98a2.78,2.78,0,0,1,2-.71h3.3v8.88h-1v-3.65Zm2.19-.85V98.14h-2.26a1.9,1.9,0,0,0-1.39.47,1.94,1.94,0,0,0,0,2.6,2,2,0,0,0,1.39.47Z" transform="translate(0 -1.14)"/></g><g class="cls-1"><path class="cls-2" d="M81.53,114.88a2.49,2.49,0,0,1-.77,1.9,2.77,2.77,0,0,1-2,.72H76.42v3.65h-.94v-8.88h3.3a2.74,2.74,0,0,1,2,.72A2.48,2.48,0,0,1,81.53,114.88Zm-1.46,1.31a1.94,1.94,0,0,0,0-2.62,2,2,0,0,0-1.36-.45H76.42v3.53h2.29A1.92,1.92,0,0,0,80.07,116.19Z" transform="translate(0 -1.14)"/><path class="cls-2" d="M88.85,121.15H83.33v-8.88h5.52v.85H84.28v3.13h3.89v.85H84.28v3.2h4.57Z" transform="translate(0 -1.14)"/><path class="cls-2" d="M91.81,121.15h-.94v-8.88h.94Zm5.35,0H95.9l-4.07-4.64,3.8-4.24h1.2l-3.89,4.22Z" transform="translate(0 -1.14)"/><path class="cls-2" d="M104.31,121.15h-1v-8h-3v3a8.52,8.52,0,0,1-.63,3.86,2.11,2.11,0,0,1-2,1.13H97.3v-.85h.24a1.57,1.57,0,0,0,.77-.18,1.58,1.58,0,0,0,.57-.64,3.94,3.94,0,0,0,.4-1.36,14.14,14.14,0,0,0,.14-2.24v-3.61h4.89Z" transform="translate(0 -1.14)"/><path class="cls-2" d="M113.06,121.15h-1l-.71-2h-3.88l-.71,2h-1l3.27-8.88h.8Zm-2-2.83-1.65-4.69-1.67,4.69Z" transform="translate(0 -1.14)"/><path class="cls-2" d="M122.11,121.15h-1V114.4l-2.43,5.35h-.81l-2.47-5.35v6.75h-1v-8.88h1l2.89,6.3,2.82-6.3h1Z" transform="translate(0 -1.14)"/><path class="cls-2" d="M130.75,118.54a2.44,2.44,0,0,1-.76,1.89,2.75,2.75,0,0,1-2,.72h-3.32v-8.88h.94v3.66H128a2.79,2.79,0,0,1,2,.71A2.51,2.51,0,0,1,130.75,118.54Zm-1.45,1.3a2,2,0,0,0,0-2.6,1.94,1.94,0,0,0-1.38-.47h-2.3v3.53h2.3A1.93,1.93,0,0,0,129.3,119.84Zm3.58,1.31h-.95v-8.88h.95Z" transform="translate(0 -1.14)"/><path class="cls-2" d="M144.67,121.15h-.95V117.1H139.5v4.05h-.94v-8.88h.94v4h4.22v-4h.95Z" transform="translate(0 -1.14)"/><path class="cls-2" d="M153.42,121.15h-1l-.71-2h-3.88l-.71,2h-1l3.27-8.88h.8Zm-2-2.83-1.65-4.69-1.67,4.69Z" transform="translate(0 -1.14)"/><path class="cls-2" d="M163.14,113.12h-2.57v8h-.95v-8h-2.57v-.85h6.09Z" transform="translate(0 -1.14)"/><path class="cls-2" d="M170.84,114.88a2.48,2.48,0,0,1-.76,1.9,2.79,2.79,0,0,1-2,.72h-2.36v3.65h-1v-8.88h3.31a2.76,2.76,0,0,1,2,.72A2.47,2.47,0,0,1,170.84,114.88Zm-1.45,1.31a1.94,1.94,0,0,0,0-2.62,2,2,0,0,0-1.37-.45h-2.28v3.53H168A1.94,1.94,0,0,0,169.39,116.19Z" transform="translate(0 -1.14)"/><path class="cls-2" d="M178.21,121.15h-1l-.71-2h-3.88l-.71,2h-1l3.27-8.88h.8Zm-2-2.83-1.65-4.69-1.67,4.69Z" transform="translate(0 -1.14)"/><path class="cls-2" d="M185.7,121.15h-.95V117.1h-4.22v4.05h-.95v-8.88h.95v4h4.22v-4h.95Z" transform="translate(0 -1.14)"/><path class="cls-2" d="M194.12,118.58a3.27,3.27,0,0,1-1.07,1.94,3.23,3.23,0,0,1-4.24-.17,2.57,2.57,0,0,1-.73-1.28,18.64,18.64,0,0,1,0-4.72,2.57,2.57,0,0,1,.73-1.28,3,3,0,0,1,2.22-.87,3,3,0,0,1,2,.7,3.23,3.23,0,0,1,1.06,1.94h-1a2.24,2.24,0,0,0-.73-1.31A2,2,0,0,0,191,113a2.08,2.08,0,0,0-1.53.63,1.85,1.85,0,0,0-.51,1,12.14,12.14,0,0,0-.11,2,12,12,0,0,0,.11,2,1.81,1.81,0,0,0,.51,1,2.08,2.08,0,0,0,1.53.63,2.06,2.06,0,0,0,1.39-.48,2.29,2.29,0,0,0,.75-1.32Z" transform="translate(0 -1.14)"/><path class="cls-2" d="M202.31,121.15h-.95v-8h-4.2v8h-.95v-8.88h6.1Z" transform="translate(0 -1.14)"/><path class="cls-2" d="M210.61,114.37a12.52,12.52,0,0,1,.15,2.34,12.72,12.72,0,0,1-.15,2.35,2.67,2.67,0,0,1-.74,1.29,3.23,3.23,0,0,1-4.43,0,2.6,2.6,0,0,1-.74-1.28,18.64,18.64,0,0,1,0-4.72,2.6,2.6,0,0,1,.74-1.28,3.25,3.25,0,0,1,4.43,0A2.65,2.65,0,0,1,210.61,114.37Zm-.91,4.38a11.7,11.7,0,0,0,.12-2,11.86,11.86,0,0,0-.12-2,1.85,1.85,0,0,0-.51-1,2.17,2.17,0,0,0-3.06,0,1.93,1.93,0,0,0-.52,1,13.35,13.35,0,0,0-.11,2,13.16,13.16,0,0,0,.11,2,1.9,1.9,0,0,0,.52,1,2.17,2.17,0,0,0,3.06,0A1.81,1.81,0,0,0,209.7,118.75Z" transform="translate(0 -1.14)"/><path class="cls-2" d="M219,114.88a2.48,2.48,0,0,1-.76,1.9,2.77,2.77,0,0,1-2,.72h-2.36v3.65H213v-8.88h3.3a2.74,2.74,0,0,1,2,.72A2.47,2.47,0,0,1,219,114.88Zm-1.45,1.31a1.94,1.94,0,0,0,0-2.62,2,2,0,0,0-1.36-.45h-2.29v3.53h2.29A1.93,1.93,0,0,0,217.59,116.19Z" transform="translate(0 -1.14)"/><path class="cls-2" d="M226,113.12H223.4v8h-1v-8h-2.57v-.85H226Z" transform="translate(0 -1.14)"/><path class="cls-2" d="M233.14,121.15h-5.52v-8.88h5.52v.85h-4.57v3.13h3.89v.85h-3.89v3.2h4.57Z" transform="translate(0 -1.14)"/></g></g><path class="cls-3" d="M159.51,68.32a5.63,5.63,0,0,1-5.63.09,4.56,4.56,0,0,1-1.62-2.35l-9.2.87a8.45,8.45,0,0,0,3.61,5.38c1.88,1.27,5,1.89,9.46,1.89A18.92,18.92,0,0,0,163.54,73a8.42,8.42,0,0,0,4-3.16,7.47,7.47,0,0,0,1.27-4.07,6.54,6.54,0,0,0-1.2-3.8,7.52,7.52,0,0,0-3.38-2.67,27.22,27.22,0,0,0-7-1.46,14.25,14.25,0,0,1-4-.82,1.42,1.42,0,0,1-.92-1.34,1.68,1.68,0,0,1,.72-1.35,3.77,3.77,0,0,1,2.29-.56,4.7,4.7,0,0,1,2.65.73,3,3,0,0,1,1.23,1.71l8.8-.87a10.7,10.7,0,0,0-2.29-3.76,8.41,8.41,0,0,0-3.52-2,23,23,0,0,0-6.4-.66,20.39,20.39,0,0,0-6.54.85,8.22,8.22,0,0,0-3.83,2.59,6.33,6.33,0,0,0-1.4,4.12,6.25,6.25,0,0,0,1.3,3.9,7.13,7.13,0,0,0,3.16,2.42,40.93,40.93,0,0,0,6.74,1.56,19.48,19.48,0,0,1,4,1,1.71,1.71,0,0,1,1.06,1.56A1.76,1.76,0,0,1,159.51,68.32Z" transform="translate(0 -1.14)"/><path class="cls-3" d="M117.21,49.44V64.86q0,4.77,2.18,7a7.88,7.88,0,0,0,6,2.29,10.28,10.28,0,0,0,4.85-1,12.91,12.91,0,0,0,3.91-3.45v3.93h8.66V49.44H133.5V61.09c0,2.21-.35,3.74-1.05,4.58A3.41,3.41,0,0,1,129.72,67a3,3,0,0,1-2.37-1,4.76,4.76,0,0,1-.84-3.23V49.44Z" transform="translate(0 -1.14)"/><path class="cls-3" d="M104.12,73.66c1.55-.08,3.1-.23,4.63-.46a11,11,0,0,0,3.92-1.1,8.71,8.71,0,0,0,3.3-3.27,9,9,0,0,0,1.21-4.68,8.22,8.22,0,0,0-1.69-5.3,9.41,9.41,0,0,0-5.31-3,8.22,8.22,0,0,0,3.61-2.19,7.53,7.53,0,0,0,1.84-5.09,7.72,7.72,0,0,0-2.59-6q-2.58-2.4-7.42-2.4H86.28V73.66ZM96.71,47h4.55a5.07,5.07,0,0,1,3.3.83,2.82,2.82,0,0,1,1,2.28,3,3,0,0,1-1,2.4,5.15,5.15,0,0,1-3.37.83H96.71Zm0,12.7H102a6,6,0,0,1,3.79.91A2.93,2.93,0,0,1,106.83,63a3.16,3.16,0,0,1-1.1,2.54,5.78,5.78,0,0,1-3.76,1H96.71Z" transform="translate(0 -1.14)"/><path class="cls-2" d="M74.27,73.16a12,12,0,0,0,3.35-3.08v3.58h8.67V40.23H76.92V51.82a8.91,8.91,0,0,0-3.14-2.19,10,10,0,0,0-4-.73,9.42,9.42,0,0,0-7.33,3.19q-2.88,3.19-2.89,9.21a15.61,15.61,0,0,0,2.62,9.14,8.62,8.62,0,0,0,7.55,3.76A9.59,9.59,0,0,0,74.27,73.16ZM70,57.17a3.35,3.35,0,0,1,2.71-1.34,3.83,3.83,0,0,1,3,1.4A6.41,6.41,0,0,1,77,61.48,7,7,0,0,1,75.8,66a3.7,3.7,0,0,1-3,1.39A3.46,3.46,0,0,1,70,66a6.81,6.81,0,0,1-1.12-4.34C68.92,59.57,69.28,58.07,70,57.17Z" transform="translate(0 -1.14)"/><path class="cls-2" d="M39.17,40.23,26.61,73.66H37.15l1.65-5.52H50.5l1.68,5.52H63L50.43,40.23ZM41,60.92l3.64-12,3.69,12Z" transform="translate(0 -1.14)"/><polygon class="cls-3" points="61.69 124.06 62.04 94.06 39.28 113.61 52.53 114.44 61.69 124.06"/><path class="cls-2" d="M185.86,13.86a13.83,13.83,0,0,0-13.27-12.7C118.92.82,65,5.14,11.35,12.91A13.45,13.45,0,0,0,0,27.1q3.26,37,6.52,74.48A12.54,12.54,0,0,0,20.06,113c3.65-.32,7.29-.66,11-1l3.39-2.91L48.66,96.83q-12.93.65-25.88,1.25a5.26,5.26,0,0,1-5.41-4.77Q14.54,60.41,11.71,28a5.66,5.66,0,0,1,4.52-5.87C69.11,12.19,122.46,6.22,175.41,7a6.21,6.21,0,0,1,5.74,5.18q4.07,26.64,8.12,52.8Q187.58,39.49,185.86,13.86Z" transform="translate(0 -1.14)"/></svg>